{
    "asset" : {
        "generator" : "Khronos glTF Blender I/O v3.2.43",
        "version" : "2.0"
    },
    "scene" : 0,
    "scenes" : [
        {
            "extras" : {
                "s_output" : "exporting...",
                "b_export" : 1,
                "export_path" : "E:\\Art101\\AFrame\\",
                "b_interactive" : 0,
                "b_renderer" : 1,
                "b_settings" : 1,
                "b_player" : 1,
                "b_bake_lightmap" : 1,
                "b_use_lightmapper" : 0,
                "b_show_env_sky" : 0,
                "f_raycast_length" : 1.0,
                "b_cast_shadows" : 0,
                "s_cubemap_ext" : "jpg",
                "b_colorManagement" : 0,
                "b_physicallyCorrectLights" : 0,
                "b_aa" : 0,
                "f_player_height" : 0.10000000149011612,
                "b_raycast" : 1,
                "b_camera_cube" : 1
            },
            "name" : "Scene",
            "nodes" : [
                0
            ]
        }
    ],
    "nodes" : [
        {
            "extras" : {
                "nomad" : {
                    "matrix" : [
                        1.1917636394500732,
                        3.551732419282416e-08,
                        2.21983276205151e-09,
                        0.0,
                        5.7149995846828006e-09,
                        1.0,
                        -2.2351740014414645e-08,
                        0.0,
                        9.043471749237142e-09,
                        1.3852590186047564e-09,
                        1.103642225265503,
                        0.0,
                        -4.534511566162109,
                        -3.287881851196289,
                        -0.31125885248184204,
                        1.0
                    ],
                    "node_collapse" : 1,
                    "pivot_delta" : [
                        1.0,
                        0.0,
                        0.0,
                        0.0,
                        0.0,
                        1.0,
                        0.0,
                        0.0,
                        0.0,
                        0.0,
                        1.0,
                        0.0,
                        0.0,
                        0.0,
                        0.0,
                        1.0
                    ],
                    "visible" : 1
                }
            },
            "mesh" : 0,
            "name" : "bottom3",
            "rotation" : [
                0,
                -0.7071068286895752,
                0,
                0.7071067094802856
            ],
            "scale" : [
                0.49849480390548706,
                0.4182831943035126,
                0.4616350531578064
            ]
        }
    ],
    "animations" : [
        {
            "channels" : [
                {
                    "sampler" : 0,
                    "target" : {
                        "node" : 0,
                        "path" : "translation"
                    }
                },
                {
                    "sampler" : 1,
                    "target" : {
                        "node" : 0,
                        "path" : "rotation"
                    }
                },
                {
                    "sampler" : 2,
                    "target" : {
                        "node" : 0,
                        "path" : "scale"
                    }
                }
            ],
            "name" : "bottom3",
            "samplers" : [
                {
                    "input" : 3,
                    "interpolation" : "LINEAR",
                    "output" : 4
                },
                {
                    "input" : 3,
                    "interpolation" : "LINEAR",
                    "output" : 5
                },
                {
                    "input" : 3,
                    "interpolation" : "LINEAR",
                    "output" : 6
                }
            ]
        }
    ],
    "materials" : [
        {
            "doubleSided" : true,
            "name" : "Material_56",
            "pbrMetallicRoughness" : {
                "baseColorFactor" : [
                    0.9999998807907104,
                    0.3170752227306366,
                    0.38893964886665344,
                    1
                ],
                "metallicFactor" : 0,
                "roughnessFactor" : 0.6499999761581421
            }
        }
    ],
    "meshes" : [
        {
            "extras" : {
                "nomad" : {
                    "absorption_albedo" : 0,
                    "absorption_color" : [
                        0.3799999952316284,
                        0.16300000250339508,
                        0.08399999886751175
                    ],
                    "absorption_enable" : 0,
                    "absorption_factor" : 0.5,
                    "active_layer" : -1,
                    "always_unlit" : 0,
                    "cast_shadow" : -1,
                    "config_cylinder" : {
                        "arc_x" : 6.2831854820251465,
                        "constant_density" : 1,
                        "height" : 2.1070733070373535,
                        "hole" : 0,
                        "hole_radius_end" : 0.800000011920929,
                        "hole_radius_start" : 0.800000011920929,
                        "radius_end" : 4.2475996017456055,
                        "radius_start" : 4.2475996017456055,
                        "regular" : 1,
                        "subdiv_x" : 90,
                        "subdiv_y" : 7,
                        "subdiv_z" : 4
                    },
                    "config_primitive_post" : {
                        "max_faces" : 500000,
                        "subdivision_count" : 0,
                        "subdivision_keep_triangles" : 0,
                        "subdivision_linear" : 0
                    },
                    "count_face" : 2700,
                    "count_uv" : 0,
                    "count_vertex" : 2702,
                    "dynTopo_local_edge_length" : -1.0,
                    "flip_culling" : 0,
                    "keep_order" : 0,
                    "material_type" : "opaque",
                    "mesh_type" : "cylinder",
                    "opacity" : 1.0,
                    "reflectance" : 0.5,
                    "refraction_interior_roughness" : 0.0,
                    "refraction_ior" : 1.3300000429153442,
                    "refraction_surface_glossiness" : 0.0,
                    "smooth_shading" : -1,
                    "subsurface_color" : [
                        1.0,
                        0.20000000298023224,
                        0.10000000149011612
                    ],
                    "subsurface_depth" : -1.0,
                    "symmetry_frame" : [
                        1.0,
                        0.0,
                        0.0,
                        0.0,
                        0.0,
                        1.0,
                        0.0,
                        0.0,
                        0.0,
                        0.0,
                        1.0,
                        0.0,
                        0.0,
                        0.0,
                        0.0,
                        1.0
                    ],
                    "symmetry_local" : 1,
                    "symmetry_radial_x" : 1,
                    "symmetry_radial_y" : 1,
                    "symmetry_radial_z" : 1,
                    "symmetry_sculpt" : 1,
                    "symmetry_transform" : 0,
                    "symmetry_x" : 1,
                    "symmetry_y" : 0,
                    "symmetry_z" : 0,
                    "translucency" : 1,
                    "translucency_factor" : 1.0,
                    "two_sided" : -1,
                    "version" : 1,
                    "voxel_local_edge_length" : 0.006666666362434626,
                    "voxel_qef" : 0,
                    "voxel_sub_level" : -1,
                    "wireframe_visible" : -1
                }
            },
            "name" : "\u5e95 2",
            "primitives" : [
                {
                    "attributes" : {
                        "POSITION" : 0,
                        "NORMAL" : 1
                    },
                    "indices" : 2,
                    "material" : 0
                }
            ]
        }
    ],
    "accessors" : [
        {
            "bufferView" : 0,
            "componentType" : 5126,
            "count" : 11902,
            "max" : [
                4.2475996017456055,
                1.0535366535186768,
                4.245012283325195
            ],
            "min" : [
                -4.2475996017456055,
                -1.0535366535186768,
                -4.245012283325195
            ],
            "type" : "VEC3"
        },
        {
            "bufferView" : 1,
            "componentType" : 5126,
            "count" : 11902,
            "type" : "VEC3"
        },
        {
            "bufferView" : 2,
            "componentType" : 5123,
            "count" : 16200,
            "type" : "SCALAR"
        },
        {
            "bufferView" : 3,
            "componentType" : 5126,
            "count" : 91,
            "max" : [
                3.75
            ],
            "min" : [
                0
            ],
            "type" : "SCALAR"
        },
        {
            "bufferView" : 4,
            "componentType" : 5126,
            "count" : 91,
            "type" : "VEC3"
        },
        {
            "bufferView" : 5,
            "componentType" : 5126,
            "count" : 91,
            "type" : "VEC4"
        },
        {
            "bufferView" : 6,
            "componentType" : 5126,
            "count" : 91,
            "type" : "VEC3"
        }
    ],
    "bufferViews" : [
        {
            "buffer" : 0,
            "byteLength" : 142824,
            "byteOffset" : 0
        },
        {
            "buffer" : 0,
            "byteLength" : 142824,
            "byteOffset" : 142824
        },
        {
            "buffer" : 0,
            "byteLength" : 32400,
            "byteOffset" : 285648
        },
        {
            "buffer" : 0,
            "byteLength" : 364,
            "byteOffset" : 318048
        },
        {
            "buffer" : 0,
            "byteLength" : 1092,
            "byteOffset" : 318412
        },
        {
            "buffer" : 0,
            "byteLength" : 1456,
            "byteOffset" : 319504
        },
        {
            "buffer" : 0,
            "byteLength" : 1092,
            "byteOffset" : 320960
        }
    ],
    "buffers" : [
        {
            "byteLength" : 322052,
            "uri" : "data:application/octet-stream;base64,"
        }
    ]
}
