{
    "asset" : {
        "generator" : "Khronos glTF Blender I/O v3.2.43",
        "version" : "2.0"
    },
    "scene" : 0,
    "scenes" : [
        {
            "extras" : {
                "s_output" : "exporting...",
                "b_export" : 1,
                "export_path" : "E:\\Art101\\AFrame\\",
                "b_interactive" : 0,
                "b_renderer" : 1,
                "b_settings" : 1,
                "b_player" : 1,
                "b_bake_lightmap" : 1,
                "b_use_lightmapper" : 0,
                "b_show_env_sky" : 0,
                "f_raycast_length" : 1.0,
                "b_cast_shadows" : 0,
                "s_cubemap_ext" : "jpg",
                "b_colorManagement" : 0,
                "b_physicallyCorrectLights" : 0,
                "b_aa" : 0,
                "f_player_height" : 0.10000000149011612,
                "b_raycast" : 1,
                "b_camera_cube" : 1
            },
            "name" : "Scene",
            "nodes" : [
                0
            ]
        }
    ],
    "nodes" : [
        {
            "extras" : {
                "nomad" : {
                    "matrix" : [
                        0.999428927898407,
                        0.0,
                        0.0,
                        0.0,
                        0.0,
                        -3.5400358200377013e-08,
                        0.9681138396263123,
                        0.0,
                        0.0,
                        -0.9340388774871826,
                        -4.526036434526759e-08,
                        0.0,
                        -4.188833713531494,
                        3.0652074813842773,
                        1.1426717042922974,
                        0.9999998807907104
                    ],
                    "node_collapse" : 1,
                    "pivot_delta" : [
                        1.0,
                        0.0,
                        0.0,
                        0.0,
                        0.0,
                        1.0,
                        0.0,
                        0.0,
                        0.0,
                        0.0,
                        1.0,
                        0.0,
                        0.0,
                        0.0,
                        0.0,
                        1.0
                    ],
                    "visible" : 1
                }
            },
            "mesh" : 0,
            "name" : "center",
            "rotation" : [
                0.4999999403953552,
                -0.5000000596046448,
                0.4999999403953552,
                0.5
            ],
            "scale" : [
                0.4180443286895752,
                0.4049457013607025,
                0.39069265127182007
            ]
        }
    ],
    "animations" : [
        {
            "channels" : [
                {
                    "sampler" : 0,
                    "target" : {
                        "node" : 0,
                        "path" : "translation"
                    }
                },
                {
                    "sampler" : 1,
                    "target" : {
                        "node" : 0,
                        "path" : "rotation"
                    }
                },
                {
                    "sampler" : 2,
                    "target" : {
                        "node" : 0,
                        "path" : "scale"
                    }
                }
            ],
            "name" : "center",
            "samplers" : [
                {
                    "input" : 3,
                    "interpolation" : "LINEAR",
                    "output" : 4
                },
                {
                    "input" : 3,
                    "interpolation" : "LINEAR",
                    "output" : 5
                },
                {
                    "input" : 3,
                    "interpolation" : "LINEAR",
                    "output" : 6
                }
            ]
        }
    ],
    "materials" : [
        {
            "doubleSided" : true,
            "name" : "Material_30",
            "pbrMetallicRoughness" : {
                "baseColorFactor" : [
                    0.9999998807907104,
                    0.5833978056907654,
                    0.9330942034721375,
                    1
                ],
                "metallicFactor" : 0,
                "roughnessFactor" : 0.6499999761581421
            }
        }
    ],
    "meshes" : [
        {
            "extras" : {
                "nomad" : {
                    "absorption_albedo" : 0,
                    "absorption_color" : [
                        0.3799999952316284,
                        0.16300000250339508,
                        0.08399999886751175
                    ],
                    "absorption_enable" : 0,
                    "absorption_factor" : 0.5,
                    "active_layer" : -1,
                    "always_unlit" : 0,
                    "cast_shadow" : -1,
                    "config_cylinder" : {
                        "arc_x" : 6.2831854820251465,
                        "constant_density" : 1,
                        "height" : 1.255889654159546,
                        "hole" : 0,
                        "hole_radius_end" : 0.800000011920929,
                        "hole_radius_start" : 0.800000011920929,
                        "radius_end" : 0.5,
                        "radius_start" : 0.5,
                        "regular" : 1,
                        "subdiv_x" : 66,
                        "subdiv_y" : 26,
                        "subdiv_z" : 3
                    },
                    "config_primitive_post" : {
                        "max_faces" : 500000,
                        "subdivision_count" : 0,
                        "subdivision_keep_triangles" : 0,
                        "subdivision_linear" : 0
                    },
                    "count_face" : 2838,
                    "count_uv" : 0,
                    "count_vertex" : 2840,
                    "dynTopo_local_edge_length" : -1.0,
                    "flip_culling" : 0,
                    "keep_order" : 0,
                    "material_type" : "opaque",
                    "mesh_type" : "cylinder",
                    "opacity" : 1.0,
                    "reflectance" : 0.5,
                    "refraction_interior_roughness" : 0.0,
                    "refraction_ior" : 1.3300000429153442,
                    "refraction_surface_glossiness" : 0.0,
                    "smooth_shading" : -1,
                    "subsurface_color" : [
                        1.0,
                        0.20000000298023224,
                        0.10000000149011612
                    ],
                    "subsurface_depth" : -1.0,
                    "symmetry_frame" : [
                        1.0,
                        0.0,
                        0.0,
                        0.0,
                        0.0,
                        1.0,
                        0.0,
                        0.0,
                        0.0,
                        0.0,
                        1.0,
                        0.0,
                        0.0,
                        0.0,
                        0.0,
                        1.0
                    ],
                    "symmetry_local" : 1,
                    "symmetry_radial_x" : 1,
                    "symmetry_radial_y" : 1,
                    "symmetry_radial_z" : 1,
                    "symmetry_sculpt" : 1,
                    "symmetry_transform" : 0,
                    "symmetry_x" : 1,
                    "symmetry_y" : 0,
                    "symmetry_z" : 0,
                    "translucency" : 1,
                    "translucency_factor" : 1.0,
                    "two_sided" : -1,
                    "version" : 1,
                    "voxel_local_edge_length" : 0.0066666672937572,
                    "voxel_qef" : 0,
                    "voxel_sub_level" : -1,
                    "wireframe_visible" : -1
                }
            },
            "name" : "\u6469\u5929\u8f6e\u4e2d\u5fc3\u5706\u67f1",
            "primitives" : [
                {
                    "attributes" : {
                        "POSITION" : 0,
                        "NORMAL" : 1
                    },
                    "indices" : 2,
                    "material" : 0
                }
            ]
        }
    ],
    "accessors" : [
        {
            "bufferView" : 0,
            "componentType" : 5126,
            "count" : 13570,
            "max" : [
                0.5000000596046448,
                0.6279468536376953,
                0.499433696269989
            ],
            "min" : [
                -0.49999985098838806,
                -0.6279428005218506,
                -0.49943363666534424
            ],
            "type" : "VEC3"
        },
        {
            "bufferView" : 1,
            "componentType" : 5126,
            "count" : 13570,
            "type" : "VEC3"
        },
        {
            "bufferView" : 2,
            "componentType" : 5123,
            "count" : 17028,
            "type" : "SCALAR"
        },
        {
            "bufferView" : 3,
            "componentType" : 5126,
            "count" : 91,
            "max" : [
                3.75
            ],
            "min" : [
                0
            ],
            "type" : "SCALAR"
        },
        {
            "bufferView" : 4,
            "componentType" : 5126,
            "count" : 91,
            "type" : "VEC3"
        },
        {
            "bufferView" : 5,
            "componentType" : 5126,
            "count" : 91,
            "type" : "VEC4"
        },
        {
            "bufferView" : 6,
            "componentType" : 5126,
            "count" : 91,
            "type" : "VEC3"
        }
    ],
    "bufferViews" : [
        {
            "buffer" : 0,
            "byteLength" : 162840,
            "byteOffset" : 0
        },
        {
            "buffer" : 0,
            "byteLength" : 162840,
            "byteOffset" : 162840
        },
        {
            "buffer" : 0,
            "byteLength" : 34056,
            "byteOffset" : 325680
        },
        {
            "buffer" : 0,
            "byteLength" : 364,
            "byteOffset" : 359736
        },
        {
            "buffer" : 0,
            "byteLength" : 1092,
            "byteOffset" : 360100
        },
        {
            "buffer" : 0,
            "byteLength" : 1456,
            "byteOffset" : 361192
        },
        {
            "buffer" : 0,
            "byteLength" : 1092,
            "byteOffset" : 362648
        }
    ],
    "buffers" : [
        {
            "byteLength" : 363740,
            "uri" : "data:application/octet-stream;base64,"
        }
    ]
}
