{
    "asset" : {
        "generator" : "Khronos glTF Blender I/O v3.2.43",
        "version" : "2.0"
    },
    "scene" : 0,
    "scenes" : [
        {
            "extras" : {
                "s_output" : "exporting...",
                "b_export" : 1,
                "export_path" : "E:\\Art101\\AFrame\\",
                "b_interactive" : 0,
                "b_renderer" : 1,
                "b_settings" : 1,
                "b_player" : 1,
                "b_bake_lightmap" : 1,
                "b_use_lightmapper" : 0,
                "b_show_env_sky" : 0,
                "f_raycast_length" : 1.0,
                "b_cast_shadows" : 0,
                "s_cubemap_ext" : "jpg",
                "b_colorManagement" : 0,
                "b_physicallyCorrectLights" : 0,
                "b_aa" : 0,
                "f_player_height" : 0.10000000149011612,
                "b_raycast" : 1,
                "b_camera_cube" : 1
            },
            "name" : "Scene",
            "nodes" : [
                0
            ]
        }
    ],
    "nodes" : [
        {
            "mesh" : 0,
            "name" : "Sphere.008",
            "rotation" : [
                0,
                0.7979230284690857,
                0,
                0.6027594208717346
            ],
            "scale" : [
                0.27001750469207764,
                0.27001747488975525,
                0.27001750469207764
            ]
        }
    ],
    "materials" : [
        {
            "doubleSided" : true,
            "name" : "TREE",
            "pbrMetallicRoughness" : {
                "baseColorFactor" : [
                    0.08635922521352768,
                    1,
                    0.05251172557473183,
                    1
                ],
                "metallicFactor" : 0,
                "roughnessFactor" : 0.5
            }
        }
    ],
    "meshes" : [
        {
            "name" : "Sphere.008",
            "primitives" : [
                {
                    "attributes" : {
                        "POSITION" : 0,
                        "NORMAL" : 1,
                        "TANGENT" : 2,
                        "TEXCOORD_0" : 3
                    },
                    "indices" : 4,
                    "material" : 0
                }
            ]
        }
    ],
    "accessors" : [
        {
            "bufferView" : 0,
            "componentType" : 5126,
            "count" : 120,
            "max" : [
                1.5578581094741821,
                2.3755147457122803,
                1.415408730506897
            ],
            "min" : [
                -1.422149419784546,
                -1.7588515281677246,
                -1.475475788116455
            ],
            "type" : "VEC3"
        },
        {
            "bufferView" : 1,
            "componentType" : 5126,
            "count" : 120,
            "type" : "VEC3"
        },
        {
            "bufferView" : 2,
            "componentType" : 5126,
            "count" : 120,
            "type" : "VEC4"
        },
        {
            "bufferView" : 3,
            "componentType" : 5126,
            "count" : 120,
            "type" : "VEC2"
        },
        {
            "bufferView" : 4,
            "componentType" : 5123,
            "count" : 120,
            "type" : "SCALAR"
        }
    ],
    "bufferViews" : [
        {
            "buffer" : 0,
            "byteLength" : 1440,
            "byteOffset" : 0
        },
        {
            "buffer" : 0,
            "byteLength" : 1440,
            "byteOffset" : 1440
        },
        {
            "buffer" : 0,
            "byteLength" : 1920,
            "byteOffset" : 2880
        },
        {
            "buffer" : 0,
            "byteLength" : 960,
            "byteOffset" : 4800
        },
        {
            "buffer" : 0,
            "byteLength" : 240,
            "byteOffset" : 5760
        }
    ],
    "buffers" : [
        {
            "byteLength" : 6000,
            "uri" : "data:application/octet-stream;base64,"
        }
    ]
}
