{
    "asset" : {
        "generator" : "Khronos glTF Blender I/O v3.2.43",
        "version" : "2.0"
    },
    "scene" : 0,
    "scenes" : [
        {
            "extras" : {
                "s_output" : "exporting...",
                "b_export" : 1,
                "export_path" : "E:\\Art101\\AFrame\\",
                "b_interactive" : 0,
                "b_renderer" : 1,
                "b_settings" : 1,
                "b_player" : 1,
                "b_bake_lightmap" : 1,
                "b_use_lightmapper" : 0,
                "b_show_env_sky" : 0,
                "f_raycast_length" : 1.0,
                "b_cast_shadows" : 0,
                "s_cubemap_ext" : "jpg",
                "b_colorManagement" : 0,
                "b_physicallyCorrectLights" : 0,
                "b_aa" : 0,
                "f_player_height" : 0.10000000149011612,
                "b_raycast" : 1,
                "b_camera_cube" : 1
            },
            "name" : "Scene",
            "nodes" : [
                0
            ]
        }
    ],
    "nodes" : [
        {
            "mesh" : 0,
            "name" : "Cube.017",
            "rotation" : [
                0.3200428783893585,
                0.18918785452842712,
                0.7991381883621216,
                0.47239670157432556
            ],
            "scale" : [
                0.018175465986132622,
                0.09437361359596252,
                0.01560918614268303
            ]
        }
    ],
    "animations" : [
        {
            "channels" : [
                {
                    "sampler" : 0,
                    "target" : {
                        "node" : 0,
                        "path" : "translation"
                    }
                },
                {
                    "sampler" : 1,
                    "target" : {
                        "node" : 0,
                        "path" : "rotation"
                    }
                },
                {
                    "sampler" : 2,
                    "target" : {
                        "node" : 0,
                        "path" : "scale"
                    }
                }
            ],
            "name" : "Cube.017",
            "samplers" : [
                {
                    "input" : 5,
                    "interpolation" : "LINEAR",
                    "output" : 6
                },
                {
                    "input" : 5,
                    "interpolation" : "LINEAR",
                    "output" : 7
                },
                {
                    "input" : 5,
                    "interpolation" : "LINEAR",
                    "output" : 8
                }
            ]
        }
    ],
    "materials" : [
        {
            "doubleSided" : true,
            "name" : "branch.001",
            "pbrMetallicRoughness" : {
                "baseColorFactor" : [
                    0.5452995896339417,
                    0.21303163468837738,
                    0.07370982319116592,
                    1
                ],
                "metallicFactor" : 0,
                "roughnessFactor" : 0.4000000059604645
            }
        }
    ],
    "meshes" : [
        {
            "name" : "Cube.004",
            "primitives" : [
                {
                    "attributes" : {
                        "POSITION" : 0,
                        "NORMAL" : 1,
                        "TANGENT" : 2,
                        "TEXCOORD_0" : 3
                    },
                    "indices" : 4,
                    "material" : 0
                }
            ]
        }
    ],
    "accessors" : [
        {
            "bufferView" : 0,
            "componentType" : 5126,
            "count" : 200,
            "max" : [
                3.829091787338257,
                1.4279041290283203,
                8.447466850280762
            ],
            "min" : [
                -5.879874229431152,
                -1.0225300788879395,
                -8.451634407043457
            ],
            "type" : "VEC3"
        },
        {
            "bufferView" : 1,
            "componentType" : 5126,
            "count" : 200,
            "type" : "VEC3"
        },
        {
            "bufferView" : 2,
            "componentType" : 5126,
            "count" : 200,
            "type" : "VEC4"
        },
        {
            "bufferView" : 3,
            "componentType" : 5126,
            "count" : 200,
            "type" : "VEC2"
        },
        {
            "bufferView" : 4,
            "componentType" : 5123,
            "count" : 204,
            "type" : "SCALAR"
        },
        {
            "bufferView" : 5,
            "componentType" : 5126,
            "count" : 90,
            "max" : [
                3.75
            ],
            "min" : [
                0.041666666666666664
            ],
            "type" : "SCALAR"
        },
        {
            "bufferView" : 6,
            "componentType" : 5126,
            "count" : 90,
            "type" : "VEC3"
        },
        {
            "bufferView" : 7,
            "componentType" : 5126,
            "count" : 90,
            "type" : "VEC4"
        },
        {
            "bufferView" : 8,
            "componentType" : 5126,
            "count" : 90,
            "type" : "VEC3"
        }
    ],
    "bufferViews" : [
        {
            "buffer" : 0,
            "byteLength" : 2400,
            "byteOffset" : 0
        },
        {
            "buffer" : 0,
            "byteLength" : 2400,
            "byteOffset" : 2400
        },
        {
            "buffer" : 0,
            "byteLength" : 3200,
            "byteOffset" : 4800
        },
        {
            "buffer" : 0,
            "byteLength" : 1600,
            "byteOffset" : 8000
        },
        {
            "buffer" : 0,
            "byteLength" : 408,
            "byteOffset" : 9600
        },
        {
            "buffer" : 0,
            "byteLength" : 360,
            "byteOffset" : 10008
        },
        {
            "buffer" : 0,
            "byteLength" : 1080,
            "byteOffset" : 10368
        },
        {
            "buffer" : 0,
            "byteLength" : 1440,
            "byteOffset" : 11448
        },
        {
            "buffer" : 0,
            "byteLength" : 1080,
            "byteOffset" : 12888
        }
    ],
    "buffers" : [
        {
            "byteLength" : 13968,
            "uri" : "data:application/octet-stream;base64,"
        }
    ]
}
