{
    "asset" : {
        "generator" : "Khronos glTF Blender I/O v3.2.43",
        "version" : "2.0"
    },
    "scene" : 0,
    "scenes" : [
        {
            "extras" : {
                "s_output" : "exporting...",
                "b_export" : 1,
                "export_path" : "E:\\Art101\\AFrame\\",
                "b_interactive" : 0,
                "b_renderer" : 1,
                "b_settings" : 1,
                "b_player" : 1,
                "b_bake_lightmap" : 1,
                "b_use_lightmapper" : 0,
                "b_show_env_sky" : 0,
                "f_raycast_length" : 1.0,
                "b_cast_shadows" : 0,
                "s_cubemap_ext" : "jpg",
                "b_colorManagement" : 0,
                "b_physicallyCorrectLights" : 0,
                "b_aa" : 0,
                "f_player_height" : 0.10000000149011612,
                "b_raycast" : 1,
                "b_camera_cube" : 1
            },
            "name" : "Scene",
            "nodes" : [
                0
            ]
        }
    ],
    "nodes" : [
        {
            "mesh" : 0,
            "name" : "Sphere.004",
            "rotation" : [
                0,
                -0.4243340492248535,
                0,
                0.9055057168006897
            ],
            "scale" : [
                0.2547377347946167,
                0.1408514380455017,
                0.19623543322086334
            ]
        }
    ],
    "animations" : [
        {
            "channels" : [
                {
                    "sampler" : 0,
                    "target" : {
                        "node" : 0,
                        "path" : "translation"
                    }
                },
                {
                    "sampler" : 1,
                    "target" : {
                        "node" : 0,
                        "path" : "rotation"
                    }
                },
                {
                    "sampler" : 2,
                    "target" : {
                        "node" : 0,
                        "path" : "scale"
                    }
                }
            ],
            "name" : "Sphere.015",
            "samplers" : [
                {
                    "input" : 5,
                    "interpolation" : "LINEAR",
                    "output" : 6
                },
                {
                    "input" : 5,
                    "interpolation" : "LINEAR",
                    "output" : 7
                },
                {
                    "input" : 5,
                    "interpolation" : "LINEAR",
                    "output" : 8
                }
            ]
        }
    ],
    "materials" : [
        {
            "doubleSided" : true,
            "name" : "Material.006",
            "pbrMetallicRoughness" : {
                "baseColorFactor" : [
                    0.18447084724903107,
                    0.18447084724903107,
                    0.18447084724903107,
                    1
                ],
                "metallicFactor" : 0,
                "roughnessFactor" : 0.5
            }
        }
    ],
    "meshes" : [
        {
            "name" : "Sphere.003",
            "primitives" : [
                {
                    "attributes" : {
                        "POSITION" : 0,
                        "NORMAL" : 1,
                        "TANGENT" : 2,
                        "TEXCOORD_0" : 3
                    },
                    "indices" : 4,
                    "material" : 0
                }
            ]
        }
    ],
    "accessors" : [
        {
            "bufferView" : 0,
            "componentType" : 5126,
            "count" : 148,
            "max" : [
                0.8300994038581848,
                0.7487752437591553,
                0.7826757431030273
            ],
            "min" : [
                -0.7568257451057434,
                -0.6243570446968079,
                -0.7587383389472961
            ],
            "type" : "VEC3"
        },
        {
            "bufferView" : 1,
            "componentType" : 5126,
            "count" : 148,
            "type" : "VEC3"
        },
        {
            "bufferView" : 2,
            "componentType" : 5126,
            "count" : 148,
            "type" : "VEC4"
        },
        {
            "bufferView" : 3,
            "componentType" : 5126,
            "count" : 148,
            "type" : "VEC2"
        },
        {
            "bufferView" : 4,
            "componentType" : 5123,
            "count" : 156,
            "type" : "SCALAR"
        },
        {
            "bufferView" : 5,
            "componentType" : 5126,
            "count" : 90,
            "max" : [
                3.75
            ],
            "min" : [
                0.041666666666666664
            ],
            "type" : "SCALAR"
        },
        {
            "bufferView" : 6,
            "componentType" : 5126,
            "count" : 90,
            "type" : "VEC3"
        },
        {
            "bufferView" : 7,
            "componentType" : 5126,
            "count" : 90,
            "type" : "VEC4"
        },
        {
            "bufferView" : 8,
            "componentType" : 5126,
            "count" : 90,
            "type" : "VEC3"
        }
    ],
    "bufferViews" : [
        {
            "buffer" : 0,
            "byteLength" : 1776,
            "byteOffset" : 0
        },
        {
            "buffer" : 0,
            "byteLength" : 1776,
            "byteOffset" : 1776
        },
        {
            "buffer" : 0,
            "byteLength" : 2368,
            "byteOffset" : 3552
        },
        {
            "buffer" : 0,
            "byteLength" : 1184,
            "byteOffset" : 5920
        },
        {
            "buffer" : 0,
            "byteLength" : 312,
            "byteOffset" : 7104
        },
        {
            "buffer" : 0,
            "byteLength" : 360,
            "byteOffset" : 7416
        },
        {
            "buffer" : 0,
            "byteLength" : 1080,
            "byteOffset" : 7776
        },
        {
            "buffer" : 0,
            "byteLength" : 1440,
            "byteOffset" : 8856
        },
        {
            "buffer" : 0,
            "byteLength" : 1080,
            "byteOffset" : 10296
        }
    ],
    "buffers" : [
        {
            "byteLength" : 11376,
            "uri" : "data:application/octet-stream;base64,"
        }
    ]
}
